<svg xmlns="http://www.w3.org/2000/svg" width="16" height="16" fill="currentColor" viewBox="0 0 16 16">
  <path fill="currentColor" fill-rule="evenodd" d="M12 8.5a.5.5 0 0 1 .5-.5h3a.5.5 0 0 1 0 1h-3a.5.5 0 0 1-.5-.5Z" clip-rule="evenodd"/>
  <path fill="currentColor" fill-rule="evenodd" d="M14 6.5a.5.5 0 0 1 .5.5v3a.5.5 0 1 1-1 0V7a.5.5 0 0 1 .5-.5ZM6.75 3a3.25 3.25 0 1 0 0 6.5 3.25 3.25 0 0 0 0-6.5ZM2.5 6.25a4.25 4.25 0 1 1 8.5 0 4.25 4.25 0 0 1-8.5 0Z" clip-rule="evenodd"/>
  <path fill="currentColor" fill-rule="evenodd" d="M6.75 10.5c-1.99 0-3.668.895-4.867 2.322a.5.5 0 1 1-.766-.644C2.487 10.55 4.435 9.5 6.75 9.5s4.264 1.05 5.633 2.678a.5.5 0 0 1-.766.644C10.417 11.395 8.74 10.5 6.75 10.5Z" clip-rule="evenodd"/>
</svg>
