<svg xmlns="http://www.w3.org/2000/svg" width="16" height="16" fill="currentColor" viewBox="0 0 16 16">
  <path fill="currentColor" fill-rule="evenodd" d="M2.793 1.793A1 1 0 0 1 3.5 1.5h6a.5.5 0 0 1 .354.147l3.5 3.5a.5.5 0 0 1 .146.353v8a1 1 0 0 1-1 1h-9a1 1 0 0 1-1-1v-11a1 1 0 0 1 .293-.707Zm6.5.707H3.5v11h9V5.707L9.293 2.5Z" clip-rule="evenodd"/>
  <path fill="currentColor" fill-rule="evenodd" d="M9.5 1.5a.5.5 0 0 1 .5.5v3h3a.5.5 0 0 1 0 1H9.5a.5.5 0 0 1-.5-.5V2a.5.5 0 0 1 .5-.5ZM6 9.5a.5.5 0 0 1 .5-.5h3a.5.5 0 0 1 0 1h-3a.5.5 0 0 1-.5-.5Z" clip-rule="evenodd"/>
  <path fill="currentColor" fill-rule="evenodd" d="M8 7.5a.5.5 0 0 1 .5.5v3a.5.5 0 1 1-1 0V8a.5.5 0 0 1 .5-.5Z" clip-rule="evenodd"/>
</svg>
