<svg xmlns="http://www.w3.org/2000/svg" width="16" height="16" fill="currentColor" viewBox="0 0 16 16">
  <path fill="currentColor" fill-rule="evenodd" d="M8 3.013A3.987 3.987 0 0 0 4.012 7c0 2.308-.483 3.698-.948 4.5h9.872c-.465-.802-.948-2.192-.948-4.5A3.987 3.987 0 0 0 8 3.013Zm-1.909-.62A4.988 4.988 0 0 1 12.988 7c0 2.167.453 3.377.813 4a.999.999 0 0 1-.862 1.5H3.061a1 1 0 0 1-.863-1.5c.361-.623.814-1.833.814-4a4.987 4.987 0 0 1 3.08-4.608Z" clip-rule="evenodd"/>
  <path fill="currentColor" fill-rule="evenodd" d="M6 11.5a.5.5 0 0 1 .5.5v.5a1.5 1.5 0 0 0 3 0V12a.5.5 0 0 1 1 0v.5a2.5 2.5 0 0 1-5 0V12a.5.5 0 0 1 .5-.5Zm5.04-10.267a.5.5 0 0 1 .69-.156 7.062 7.062 0 0 1 2.556 2.832.5.5 0 1 1-.896.445 6.062 6.062 0 0 0-2.194-2.431.5.5 0 0 1-.156-.69Zm-6.08 0a.5.5 0 0 1-.156.69 6.063 6.063 0 0 0-2.194 2.43.5.5 0 1 1-.896-.444A7.062 7.062 0 0 1 4.27 1.077a.5.5 0 0 1 .69.156Z" clip-rule="evenodd"/>
</svg>
