<svg xmlns="http://www.w3.org/2000/svg" width="16" height="16" fill="currentColor" viewBox="0 0 16 16">
  <path fill="currentColor" fill-rule="evenodd" d="M2.664 2.13a.5.5 0 0 1 .706.034l10 11a.5.5 0 0 1-.74.672l-10-11a.5.5 0 0 1 .034-.706ZM6 11.5a.5.5 0 0 1 .5.5v.5a1.5 1.5 0 0 0 3 0V12a.5.5 0 0 1 1 0v.5a2.5 2.5 0 0 1-5 0V12a.5.5 0 0 1 .5-.5Z" clip-rule="evenodd"/>
  <path fill="currentColor" fill-rule="evenodd" d="M4.59 3.525a.5.5 0 0 1 .129.695 4.025 4.025 0 0 0-.707 2.28V7c0 2.308-.483 3.698-.948 4.5h8.573a.5.5 0 0 1 0 1H3.062a1 1 0 0 1-.863-1.5c.36-.623.814-1.833.814-4v-.5c0-1.015.307-2.008.882-2.845a.5.5 0 0 1 .695-.13ZM8.026 2.5a3.925 3.925 0 0 0-1.996.521.5.5 0 1 1-.498-.867A4.925 4.925 0 0 1 8.036 1.5c2.758.021 4.952 2.31 4.952 5.056V7c0 1.616.254 2.697.528 3.4a.5.5 0 0 1-.932.363c-.325-.835-.596-2.041-.596-3.763v-.444c0-2.215-1.77-4.04-3.96-4.056h-.002Z" clip-rule="evenodd"/>
</svg>
