<svg xmlns="http://www.w3.org/2000/svg" width="16" height="16" fill="currentColor" viewBox="0 0 16 16">
  <g clip-path="url(#a)">
    <path fill="currentColor" fill-rule="evenodd" d="M1 7.712C.935 5.138 2.958 2.965 5.561 3c.872.01 1.719.274 2.44.756A4.483 4.483 0 0 1 10.5 3c1.164 0 2.516.449 3.343 1.232a.5.5 0 0 1 .156.363v.001a.5.5 0 0 1-.156.363c-.735.697-1.344 1.605-1.344 2.542 0 1.266.413 2.29 1.283 2.887a.5.5 0 0 1 .19.575L13.5 10.8l.473.163v.001l-.001.002-.002.004-.004.013a3.573 3.573 0 0 1-.077.19 6.174 6.174 0 0 1-.249.506c-.227.415-.585.97-1.114 1.537l-.002.002a2.486 2.486 0 0 1-1.819.782h-5.48s.001 0 0 0m5.48 0 .001-.5v.5Zm2.182-3.042C11.9 10.104 11.5 8.835 11.5 7.501c0-1.124.59-2.114 1.254-2.854A4.407 4.407 0 0 0 10.5 4h-.001a3.483 3.483 0 0 0-2.186.765.5.5 0 0 1-.626 0A3.482 3.482 0 0 0 5.55 4C3.543 3.973 1.949 5.65 2 7.687a6.977 6.977 0 0 0 2.197 4.906c.278.262.646.408 1.028.407h5.484a1.483 1.483 0 0 0 1.087-.467 6.674 6.674 0 0 0 1.092-1.575ZM10.438 0h.062a.5.5 0 0 1 0 1h-.063a1.5 1.5 0 0 0-1.453 1.125.5.5 0 1 1-.968-.25A2.5 2.5 0 0 1 10.438 0Z" clip-rule="evenodd"/>
  </g>
  <defs>
    <clipPath id="a">
      <path fill="#fff" d="M0 0h16v16H0z"/>
    </clipPath>
  </defs>
</svg>
