<svg xmlns="http://www.w3.org/2000/svg" width="16" height="16" fill="currentColor" viewBox="0 0 16 16">
  <g clip-path="url(#a)">
    <path fill="currentColor" fill-rule="evenodd" d="M5 14.5a.5.5 0 0 1 .5-.5h5a.5.5 0 0 1 0 1h-5a.5.5 0 0 1-.5-.5Zm5.544-11.713A4.5 4.5 0 0 0 7.891 2C5.457 2.056 3.487 4.087 3.5 6.525a4.493 4.493 0 0 0 1.726 3.518A2.007 2.007 0 0 1 6 11.625V12h4v-.377a2.02 2.02 0 0 1 .78-1.586 4.5 4.5 0 0 0-.236-7.25ZM7.868 1a5.5 5.5 0 0 1 3.529 9.825l-.002.002a1.018 1.018 0 0 0-.395.8V12a1 1 0 0 1-1 1H6a1 1 0 0 1-1-1v-.374a1.008 1.008 0 0 0-.388-.794A5.496 5.496 0 0 1 2.5 6.531m5.368-5.53C4.885 1.068 2.484 3.548 2.5 6.53Z" clip-rule="evenodd"/>
    <path fill="currentColor" fill-rule="evenodd" d="M8.007 3.417a.5.5 0 0 1 .576-.41c1.46.246 2.663 1.45 2.91 2.91a.5.5 0 0 1-.986.167c-.176-1.041-1.05-1.916-2.09-2.09a.5.5 0 0 1-.41-.577Z" clip-rule="evenodd"/>
  </g>
  <defs>
    <clipPath id="a">
      <path fill="#fff" d="M0 0h16v16H0z"/>
    </clipPath>
  </defs>
</svg>
