<svg xmlns="http://www.w3.org/2000/svg" width="16" height="16" fill="currentColor" viewBox="0 0 16 16">
  <path fill="currentColor" fill-rule="evenodd" d="M2 3a1 1 0 0 1 1-1h10a1 1 0 0 1 1 1v10a1 1 0 0 1-1 1H3a1 1 0 0 1-1-1V3Zm11 0H3v10h10V3Z" clip-rule="evenodd"/>
  <path fill="currentColor" fill-rule="evenodd" d="M11 1a.5.5 0 0 1 .5.5v2a.5.5 0 0 1-1 0v-2A.5.5 0 0 1 11 1ZM5 1a.5.5 0 0 1 .5.5v2a.5.5 0 0 1-1 0v-2A.5.5 0 0 1 5 1ZM2 5.5a.5.5 0 0 1 .5-.5h11a.5.5 0 0 1 0 1h-11a.5.5 0 0 1-.5-.5Zm4.763 1.575A.5.5 0 0 1 7 7.5v4a.5.5 0 1 1-1 0V8.31l-.276.137a.5.5 0 0 1-.448-.894l1-.5a.5.5 0 0 1 .487.022Zm2.824.935a.5.5 0 0 0-.52.241.5.5 0 1 1-.866-.502A1.5 1.5 0 1 1 10.7 9.402L9.5 11h1a.5.5 0 0 1 0 1h-2a.5.5 0 0 1-.4-.8l1.799-2.398a.5.5 0 0 0-.312-.792Z" clip-rule="evenodd"/>
</svg>
