<svg xmlns="http://www.w3.org/2000/svg" width="16" height="16" fill="currentColor" viewBox="0 0 16 16">
  <path fill="currentColor" fill-rule="evenodd" d="M2 3a1 1 0 0 1 1-1h10a1 1 0 0 1 1 1v10a1 1 0 0 1-1 1H3a1 1 0 0 1-1-1V3Zm11 0H3v10h10V3Z" clip-rule="evenodd"/>
  <path fill="currentColor" fill-rule="evenodd" d="M11 1a.5.5 0 0 1 .5.5v2a.5.5 0 0 1-1 0v-2A.5.5 0 0 1 11 1ZM5 1a.5.5 0 0 1 .5.5v2a.5.5 0 0 1-1 0v-2A.5.5 0 0 1 5 1ZM2 5.5a.5.5 0 0 1 .5-.5h11a.5.5 0 0 1 0 1h-11a.5.5 0 0 1-.5-.5Zm8.604 2.147a.5.5 0 0 1 0 .707l-3 3a.5.5 0 0 1-.708 0l-1.5-1.5a.5.5 0 1 1 .708-.707l1.146 1.146 2.646-2.646a.5.5 0 0 1 .708 0Z" clip-rule="evenodd"/>
</svg>
