<svg xmlns="http://www.w3.org/2000/svg" width="16" height="16" fill="currentColor" viewBox="0 0 16 16">
  <path fill="currentColor" fill-rule="evenodd" d="M6.285 2.511a4 4 0 0 0-3.798 5.904.5.5 0 0 1 .042.377l-.472 1.65 1.651-.47a.5.5 0 0 1 .377.041 4 4 0 1 0 2.2-7.502Zm-4.444 7.993Zm1.163-8.007a5 5 0 1 1 .788 8.49l-1.676.479a.875.875 0 0 1-1.082-1.082l.481.137-.48-.137.478-1.676c.03.063.063.124.096.186l.44-.24-.482-.137-.054.191a5 5 0 0 1 1.491-6.211Z" clip-rule="evenodd"/>
  <path fill="currentColor" fill-rule="evenodd" d="M9.747 4.98a.5.5 0 0 1 .527-.472 5 5 0 0 1 4.213 7.2l.479 1.676a.874.874 0 0 1-1.082 1.082l-1.676-.479a5.002 5.002 0 0 1-6.926-2.828.5.5 0 1 1 .943-.332 4.003 4.003 0 0 0 5.69 2.186.5.5 0 0 1 .377-.042l1.65.472-.47-1.651a.5.5 0 0 1 .04-.377 4 4 0 0 0-3.293-5.909.5.5 0 0 1-.472-.526Zm4.257 8.679Z" clip-rule="evenodd"/>
</svg>
