<svg xmlns="http://www.w3.org/2000/svg" width="16" height="16" fill="currentColor" viewBox="0 0 16 16">
  <path fill="currentColor" fill-rule="evenodd" d="M2.293 2.293A1 1 0 0 1 3 2h10a1 1 0 0 1 1 1v10a1 1 0 0 1-1 1H8.5a.5.5 0 1 1 0-1H13V3H3v6a.5.5 0 0 1-1 0V3a1 1 0 0 1 .293-.707Z" clip-rule="evenodd"/>
  <path fill="currentColor" fill-rule="evenodd" d="M7.854 9.647a.5.5 0 0 1 0 .707l-3.5 3.5a.5.5 0 0 1-.708 0l-1.5-1.5a.5.5 0 1 1 .708-.707L4 12.793l3.146-3.146a.5.5 0 0 1 .708 0Z" clip-rule="evenodd"/>
</svg>
