<svg xmlns="http://www.w3.org/2000/svg" width="16" height="16" fill="currentColor" viewBox="0 0 16 16">
  <path fill="currentColor" fill-rule="evenodd" d="M5.825 10.236a.5.5 0 0 1 .69-.16 2.812 2.812 0 0 0 2.97 0 .5.5 0 0 1 .53.849 3.812 3.812 0 0 1-4.03 0 .5.5 0 0 1-.16-.689Z" clip-rule="evenodd"/>
  <path fill="currentColor" fill-rule="evenodd" d="M8 2.5a5.5 5.5 0 1 0 0 11 5.5 5.5 0 0 0 0-11ZM1.5 8a6.5 6.5 0 1 1 13 0 6.5 6.5 0 0 1-13 0Z" clip-rule="evenodd"/>
  <path fill="currentColor" fill-rule="evenodd" d="M8.312 1.61a.5.5 0 0 1 .078.702 4.192 4.192 0 0 0-.782 1.536 3.464 3.464 0 0 0-.107.623v.028l-.001.003a.5.5 0 0 0 1-.002.5.5 0 0 1 1 0 1.5 1.5 0 0 1-3 0H7h-.5v-.028l.003-.056a4.462 4.462 0 0 1 .14-.827 5.157 5.157 0 0 1 .967-1.902.5.5 0 0 1 .702-.078Z" clip-rule="evenodd"/>
</svg>
