<svg xmlns="http://www.w3.org/2000/svg" width="16" height="16" fill="currentColor" viewBox="0 0 16 16">
  <path fill="currentColor" fill-rule="evenodd" d="M2.5 3a.5.5 0 0 1 .5-.5h4a.5.5 0 0 1 .5.5v4a.5.5 0 0 1-.5.5H3a.5.5 0 0 1-.5-.5V3Zm1 .5v3h3v-3h-3Zm5-.5a.5.5 0 0 1 .5-.5h4a.5.5 0 0 1 .5.5v4a.5.5 0 0 1-.5.5H9a.5.5 0 0 1-.5-.5V3Zm1 .5v3h3v-3h-3ZM2.5 9a.5.5 0 0 1 .5-.5h4a.5.5 0 0 1 .5.5v4a.5.5 0 0 1-.5.5H3a.5.5 0 0 1-.5-.5V9Zm1 .5v3h3v-3h-3Zm5-.5a.5.5 0 0 1 .5-.5h4a.5.5 0 0 1 .5.5v4a.5.5 0 0 1-.5.5H9a.5.5 0 0 1-.5-.5V9Zm1 .5v3h3v-3h-3Z" clip-rule="evenodd"/>
</svg>
