<svg xmlns="http://www.w3.org/2000/svg" width="16" height="16" fill="currentColor" viewBox="0 0 16 16">
  <path fill="currentColor" fill-rule="evenodd" d="M5.854 6.647a.5.5 0 1 0-.708.707l2.5 2.5a.5.5 0 0 0 .708 0l2.5-2.5a.5.5 0 0 0-.708-.707L8 8.793 5.854 6.647ZM3 9.5a.5.5 0 0 0-1 0V13a1 1 0 0 0 1 1h10a1 1 0 0 0 1-1V9.5a.5.5 0 0 0-1 0V13H3V9.5Z" clip-rule="evenodd"/>
  <path fill="currentColor" fill-rule="evenodd" d="M8 2a.5.5 0 0 1 .5.5v7a.5.5 0 0 1-1 0v-7A.5.5 0 0 1 8 2Z" clip-rule="evenodd"/>
</svg>
