<svg xmlns="http://www.w3.org/2000/svg" width="16" height="16" fill="currentColor" viewBox="0 0 16 16">
  <path fill="currentColor" fill-rule="evenodd" d="M13 11.5a.5.5 0 0 0 .5-.5V4a.5.5 0 0 0-.5-.5H3a.5.5 0 0 0-.5.5v7a.5.5 0 0 0 .5.5h10Zm1.5-.5a1.5 1.5 0 0 1-1.5 1.5H3A1.5 1.5 0 0 1 1.5 11V4A1.5 1.5 0 0 1 3 2.5h10A1.5 1.5 0 0 1 14.5 4v7Zm-9 3a.5.5 0 0 1 .5-.5h4a.5.5 0 0 1 0 1H6a.5.5 0 0 1-.5-.5Z" clip-rule="evenodd"/>
  <path fill="currentColor" fill-rule="evenodd" d="M1.5 9.5A.5.5 0 0 1 2 9h12a.5.5 0 0 1 0 1H2a.5.5 0 0 1-.5-.5Zm6.5 2a.5.5 0 0 1 .5.5v2a.5.5 0 1 1-1 0v-2a.5.5 0 0 1 .5-.5Z" clip-rule="evenodd"/>
</svg>
