<svg xmlns="http://www.w3.org/2000/svg" width="16" height="16" fill="currentColor" viewBox="0 0 16 16">
  <path fill="currentColor" fill-rule="evenodd" d="M10 1.793a1 1 0 0 1 1.414 0l2.793 2.79a1 1 0 0 1 0 1.415L6.5 13.708a1 1 0 0 1-.707.292H3a1 1 0 0 1-1-1v-2.793a1 1 0 0 1 .292-.707L10 1.794Zm3.5 3.498L10.707 2.5 3 10.207V13h2.793L13.5 5.291Z" clip-rule="evenodd"/>
  <path fill="currentColor" fill-rule="evenodd" d="M8.146 3.647a.5.5 0 0 1 .708 0l3.5 3.5a.5.5 0 0 1-.708.707l-3.5-3.5a.5.5 0 0 1 0-.707Z" clip-rule="evenodd"/>
</svg>
