<svg xmlns="http://www.w3.org/2000/svg" width="16" height="16" fill="currentColor" viewBox="0 0 16 16">
  <path fill="currentColor" fill-rule="evenodd" d="M2.793 5.793A1 1 0 0 1 3.5 5.5H5a.5.5 0 0 1 0 1H3.5V13h9V6.5H11a.5.5 0 0 1 0-1h1.5a1 1 0 0 1 1 1V13a1 1 0 0 1-1 1h-9a1 1 0 0 1-1-1V6.5a1 1 0 0 1 .293-.707ZM7.646.647a.5.5 0 0 1 .708 0l2.625 2.625a.5.5 0 0 1-.708.707L8 1.707 5.729 3.98a.5.5 0 1 1-.708-.707L7.646.647Z" clip-rule="evenodd"/>
  <path fill="currentColor" fill-rule="evenodd" d="M8 .5a.5.5 0 0 1 .5.5v7a.5.5 0 0 1-1 0V1A.5.5 0 0 1 8 .5Z" clip-rule="evenodd"/>
</svg>
