<svg xmlns="http://www.w3.org/2000/svg" width="16" height="16" fill="currentColor" viewBox="0 0 16 16">
  <path fill="currentColor" fill-rule="evenodd" d="M2.271 5.397C3.463 4.205 5.334 3 8 3s4.537 1.205 5.729 2.397a9.458 9.458 0 0 1 1.304 1.634 7.975 7.975 0 0 1 .415.746l.006.013.002.005v.001L15 8l.457.204-.001.002-.002.004-.006.013a3.04 3.04 0 0 1-.1.202 9.412 9.412 0 0 1-1.619 2.179C12.537 11.796 10.666 13 8 13s-4.537-1.204-5.729-2.396A9.459 9.459 0 0 1 .968 8.97a7.98 7.98 0 0 1-.416-.747L.546 8.21l-.002-.004v-.002L1 8l-.457-.203v-.001l.001-.001.002-.005.006-.013a3.194 3.194 0 0 1 .1-.202 9.46 9.46 0 0 1 1.619-2.178ZM1 8l-.457-.203a.5.5 0 0 0 0 .406L1 8Zm.56 0c.058.11.142.26.254.437.25.398.634.93 1.165 1.46C4.037 10.955 5.666 12 8 12s3.963-1.045 5.021-2.103c.53-.53.915-1.062 1.165-1.46A7.14 7.14 0 0 0 14.441 8a7.144 7.144 0 0 0-.255-.437 8.464 8.464 0 0 0-1.165-1.46C11.963 5.047 10.334 4 8 4S4.037 5.046 2.979 6.104a8.46 8.46 0 0 0-1.165 1.46A7.115 7.115 0 0 0 1.559 8ZM15 8l.457.203a.5.5 0 0 0 0-.406L15 8Z" clip-rule="evenodd"/>
  <path fill="currentColor" fill-rule="evenodd" d="M8 6a2 2 0 1 0 0 4 2 2 0 0 0 0-4ZM5 8a3 3 0 1 1 6 0 3 3 0 0 1-6 0Z" clip-rule="evenodd"/>
</svg>
