<svg xmlns="http://www.w3.org/2000/svg" width="16" height="16" fill="currentColor" viewBox="0 0 16 16">
  <path fill="currentColor" fill-rule="evenodd" d="M5.89 4.563a.5.5 0 0 1-.078.703A3.49 3.49 0 0 0 4.5 7.999a8.47 8.47 0 0 1-.884 3.781.5.5 0 1 1-.896-.445 7.47 7.47 0 0 0 .78-3.334m2.39-3.438a.5.5 0 0 0-.702-.079Zm-.702-.079A4.49 4.49 0 0 0 3.942 6.05ZM3.942 6.05A4.49 4.49 0 0 0 3.5 8ZM8 7.5a.5.5 0 0 1 .5.5 12.444 12.444 0 0 1-1.563 6.055.5.5 0 1 1-.874-.485A11.444 11.444 0 0 0 7.5 8a.5.5 0 0 1 .5-.5Z" clip-rule="evenodd"/>
  <path fill="currentColor" fill-rule="evenodd" d="M8 6.5A1.5 1.5 0 0 0 6.5 8a.5.5 0 0 1-1 0 2.5 2.5 0 0 1 5 0 14.445 14.445 0 0 1-1.378 6.176.5.5 0 1 1-.904-.426A13.445 13.445 0 0 0 9.5 8 1.5 1.5 0 0 0 8 6.5ZM10.5 8H10h.5Z" clip-rule="evenodd"/>
  <path fill="currentColor" fill-rule="evenodd" d="M3.404 3.404A6.5 6.5 0 0 1 14.5 8M5.9 9.51a.5.5 0 0 1 .39.59 10.433 10.433 0 0 1-1.189 3.14.5.5 0 0 1-.866-.5A9.432 9.432 0 0 0 5.311 9.9a.5.5 0 0 1 .59-.39Z" clip-rule="evenodd"/>
  <path fill="currentColor" fill-rule="evenodd" d="M8 3.5A4.5 4.5 0 0 1 12.5 8v.001c0 .69-.043 1.378-.129 2.062a.5.5 0 1 1-.992-.124c.08-.643.12-1.29.121-1.939M8 4.5a3.5 3.5 0 0 1 2.475 1.026Zm0 0c-.147 0-.293.01-.44.028a.5.5 0 0 1-.12-.993c.185-.023.372-.034.56-.034m2.475 2.025A3.5 3.5 0 0 1 11.5 8Zm1.145 5.99a.5.5 0 0 1 .36.608c-.098.382-.209.758-.334 1.13a.5.5 0 0 1-.947-.32c.117-.347.221-.7.313-1.058a.5.5 0 0 1 .609-.36Z" clip-rule="evenodd"/>
</svg>
