<svg xmlns="http://www.w3.org/2000/svg" width="16" height="16" fill="currentColor" viewBox="0 0 16 16">
  <path fill="currentColor" fill-rule="evenodd" d="M1.5 5a1 1 0 0 1 1-1h11a1 1 0 0 1 1 1v8a1 1 0 0 1-1 1h-11a1 1 0 0 1-1-1V5Zm12 0h-11v8h11V5Z" clip-rule="evenodd"/>
  <path fill="currentColor" fill-rule="evenodd" d="M5.44 2.44A1.5 1.5 0 0 1 6.5 2h3A1.5 1.5 0 0 1 11 3.5v1a.5.5 0 0 1-1 0v-1a.5.5 0 0 0-.5-.5h-3a.5.5 0 0 0-.5.5v1a.5.5 0 0 1-1 0v-1c0-.398.158-.78.44-1.06ZM8 7a.5.5 0 0 1 .5.5v3a.5.5 0 1 1-1 0v-3A.5.5 0 0 1 8 7Z" clip-rule="evenodd"/>
  <path fill="currentColor" fill-rule="evenodd" d="M6 9a.5.5 0 0 1 .5-.5h3a.5.5 0 0 1 0 1h-3A.5.5 0 0 1 6 9Z" clip-rule="evenodd"/>
</svg>
