<svg xmlns="http://www.w3.org/2000/svg" width="16" height="16" fill="currentColor" viewBox="0 0 16 16">
  <path fill="currentColor" fill-rule="evenodd" d="M1.5 5.5a1 1 0 0 1 1-1h11a1 1 0 0 1 1 1v2a1 1 0 0 1-1 1h-11a1 1 0 0 1-1-1v-2Zm12 0h-11v2h11v-2Z" clip-rule="evenodd"/>
  <path fill="currentColor" fill-rule="evenodd" d="M3 7.5a.5.5 0 0 1 .5.5v4.5h9V8a.5.5 0 0 1 1 0v4.5a1 1 0 0 1-1 1h-9a1 1 0 0 1-1-1V8a.5.5 0 0 1 .5-.5Z" clip-rule="evenodd"/>
  <path fill="currentColor" fill-rule="evenodd" d="M8 4.5a.5.5 0 0 1 .5.5v8a.5.5 0 1 1-1 0V5a.5.5 0 0 1 .5-.5Z" clip-rule="evenodd"/>
  <path fill="currentColor" fill-rule="evenodd" d="M10.696 2.304c-.41-.41-1.056-.394-1.384-.022-.377.426-.591 1.078-.703 1.681a6.721 6.721 0 0 0-.074.502c.149-.016.32-.04.502-.073.604-.112 1.256-.326 1.68-.702M8 5v.5a.5.5 0 0 1-.5-.5H8Zm.563-3.38c.763-.865 2.082-.78 2.84-.023.758.759.841 2.077-.022 2.842-.632.56-1.504.814-2.161.936a7.818 7.818 0 0 1-1.19.125H8V5h-.5v-.03a4.368 4.368 0 0 1 .016-.334 7.81 7.81 0 0 1 .11-.856c.122-.657.377-1.529.937-2.16Zm2.133.684c.409.41.395 1.056.022 1.386Z" clip-rule="evenodd"/>
  <path fill="currentColor" fill-rule="evenodd" d="M4.597 1.597c.758-.758 2.077-.842 2.84.022.56.632.815 1.504.937 2.161A7.807 7.807 0 0 1 8.5 4.97v.029L8 5v.5h-.03a4.369 4.369 0 0 1-.334-.016 7.818 7.818 0 0 1-.856-.11c-.657-.121-1.529-.376-2.16-.935-.864-.765-.781-2.083-.023-2.842ZM8 5v.5a.5.5 0 0 0 .5-.5H8Zm-.535-.535a6.735 6.735 0 0 1-.502-.073c-.604-.112-1.256-.326-1.68-.702m2.182.775a6.721 6.721 0 0 0-.074-.502c-.112-.603-.326-1.255-.703-1.68v-.001c-.328-.372-.974-.387-1.384.022-.409.41-.395 1.056-.022 1.386" clip-rule="evenodd"/>
</svg>
