<svg xmlns="http://www.w3.org/2000/svg" width="16" height="16" fill="currentColor" viewBox="0 0 16 16">
  <path fill="currentColor" fill-rule="evenodd" d="M8 2.5a5.5 5.5 0 1 0 0 11 5.5 5.5 0 0 0 0-11ZM1.5 8a6.5 6.5 0 1 1 13 0 6.5 6.5 0 0 1-13 0Z" clip-rule="evenodd"/>
  <path fill="currentColor" fill-rule="evenodd" d="M7.604 1.583a.986.986 0 0 1 1.12.235C10.128 3.328 11 5.544 11 8c0 2.456-.873 4.672-2.276 6.183a.987.987 0 0 1-1.45-.001l.369-.339M8 2.507C9.211 3.817 10 5.779 10 8c0 2.22-.789 4.183-2 5.493C6.789 12.183 6 10.221 6 8c0-2.22.789-4.183 2-5.493Zm.01 10.998Z" clip-rule="evenodd"/>
  <path fill="currentColor" fill-rule="evenodd" d="M1.841 6a.5.5 0 0 1 .5-.5H13.66a.5.5 0 1 1 0 1H2.34a.5.5 0 0 1-.5-.5Zm0 4a.5.5 0 0 1 .5-.5H13.66a.5.5 0 1 1 0 1H2.34a.5.5 0 0 1-.5-.5Z" clip-rule="evenodd"/>
</svg>
