<svg xmlns="http://www.w3.org/2000/svg" width="16" height="16" fill="currentColor" viewBox="0 0 16 16">
  <path fill="currentColor" fill-rule="evenodd" d="M12.75 4a1.25 1.25 0 1 0 0 2.5 1.25 1.25 0 0 0 0-2.5ZM10.5 5.25a2.25 2.25 0 1 1 4.5 0 2.25 2.25 0 0 1-4.5 0ZM.293 9.293A1 1 0 0 1 1 9h2a.5.5 0 0 1 0 1H1v2.5h2a.5.5 0 0 1 0 1H1a1 1 0 0 1-1-1V10a1 1 0 0 1 .293-.707Z" clip-rule="evenodd"/>
  <path fill="currentColor" fill-rule="evenodd" d="M5.624 8a1 1 0 0 0-.708.292L3.5 9.707V12.5h3.938l3.902-.975 2.374-1.013a.537.537 0 0 0-.414-.988l-4.188.963A.497.497 0 0 1 9 10.5H7a.5.5 0 1 1 0-1h1.75a.75.75 0 0 0 0-1.5H5.624Zm4.829 1.153 2.613-.601a1.538 1.538 0 0 1 1.056 2.873l-2.426 1.035a.496.496 0 0 1-.075.025l-4 1a.5.5 0 0 1-.121.015H3a.5.5 0 0 1-.5-.5V9.5a.5.5 0 0 1 .146-.353L4.21 7.584A2.004 2.004 0 0 1 5.626 7H8.75a1.75 1.75 0 0 1 1.703 2.153Zm.106-6.616a1.25 1.25 0 1 0 .227 2.342.5.5 0 0 1 .428.904 2.25 2.25 0 1 1 1.285-2.136.5.5 0 0 1-.998.045 1.25 1.25 0 0 0-.942-1.155Z" clip-rule="evenodd"/>
</svg>
