<svg xmlns="http://www.w3.org/2000/svg" width="16" height="16" fill="currentColor" viewBox="0 0 16 16">
  <path fill="currentColor" fill-rule="evenodd" d="M.293 9.293A1 1 0 0 1 1 9h2a.5.5 0 0 1 0 1H1v2.5h2a.5.5 0 0 1 0 1H1a1 1 0 0 1-1-1V10a1 1 0 0 1 .293-.707Z" clip-rule="evenodd"/>
  <path fill="currentColor" fill-rule="evenodd" d="M5.624 8a1 1 0 0 0-.708.292L3.5 9.707V12.5h3.938l3.902-.975 2.374-1.013a.537.537 0 0 0-.414-.988l-4.188.963A.497.497 0 0 1 9 10.5H7a.5.5 0 1 1 0-1h1.75a.75.75 0 0 0 0-1.5H5.624Zm4.829 1.153 2.613-.601a1.538 1.538 0 0 1 1.056 2.873l-2.426 1.035a.496.496 0 0 1-.075.025l-4 1a.5.5 0 0 1-.121.015H3a.5.5 0 0 1-.5-.5V9.5a.5.5 0 0 1 .146-.353L4.21 7.584A2.004 2.004 0 0 1 5.626 7H8.75a1.75 1.75 0 0 1 1.703 2.153Z" clip-rule="evenodd"/>
  <path fill="currentColor" fill-rule="evenodd" d="M8.563 3.32A1.945 1.945 0 0 0 7.473 3h-.007C6.39 3 5.5 3.911 5.5 5c0 .745.358 1.458.938 2.19a.5.5 0 0 1-.784.62C5.017 7.008 4.5 6.076 4.5 5c0-1.621 1.317-2.998 2.963-3A2.945 2.945 0 0 1 9.75 3.05 2.946 2.946 0 0 1 12.037 2C13.683 2.002 15 3.38 15 5c0 1.075-.516 2.045-1.164 2.847-.65.807-1.474 1.494-2.178 2.013a.5.5 0 0 1-.593-.805c.673-.496 1.419-1.124 1.993-1.836C13.636 6.503 14 5.752 14 5c0-1.089-.89-2-1.966-2h-.006a1.945 1.945 0 0 0-1.817 1.193.5.5 0 0 1-.922 0 1.945 1.945 0 0 0-.726-.874Z" clip-rule="evenodd"/>
</svg>
