<svg xmlns="http://www.w3.org/2000/svg" width="16" height="16" fill="currentColor" viewBox="0 0 16 16">
  <path fill="currentColor" fill-rule="evenodd" d="M5.5 6a.5.5 0 0 1 .416.223L7.5 8.599l.584-.876A.5.5 0 0 1 8.5 7.5H10a.5.5 0 0 1 0 1H8.768l-.852 1.277a.5.5 0 0 1-.832 0L5.5 7.402l-.584.875A.5.5 0 0 1 4.5 8.5H2a.5.5 0 0 1 0-1h2.232l.852-1.277A.5.5 0 0 1 5.5 6Z" clip-rule="evenodd"/>
  <path fill="currentColor" fill-rule="evenodd" d="M4.875 3A2.875 2.875 0 0 0 2 5.875V6a.5.5 0 0 1-1 0v-.124A3.876 3.876 0 0 1 4.875 2C6.142 2 7.287 2.551 8 3.496 8.713 2.551 9.858 2 11.125 2A3.875 3.875 0 0 1 15 5.875c0 1.164-.458 2.253-1.1 3.21-.644.96-1.492 1.817-2.325 2.53a21.385 21.385 0 0 1-3.316 2.313l-.016.009-.004.002-.001.001L8 13.5l-.237.44-.003-.001-.007-.004-.024-.013a16.103 16.103 0 0 1-.425-.246c-.284-.17-.68-.417-1.138-.73-.912-.626-2.08-1.526-3.071-2.608a.5.5 0 0 1 .738-.676c.92 1.005 2.02 1.856 2.898 2.459A20.971 20.971 0 0 0 8 12.926l.027-.016a20.395 20.395 0 0 0 2.898-2.055c.792-.679 1.569-1.47 2.144-2.327.576-.858.931-1.754.931-2.653A2.875 2.875 0 0 0 11.125 3c-1.227 0-2.242.663-2.662 1.69a.5.5 0 0 1-.926 0C7.117 3.663 6.102 3 4.875 3ZM8 13.5l-.237.44a.5.5 0 0 0 .475 0L8 13.5Z" clip-rule="evenodd"/>
</svg>
