<svg xmlns="http://www.w3.org/2000/svg" width="16" height="16" fill="currentColor" viewBox="0 0 16 16">
  <path fill="currentColor" fill-rule="evenodd" d="M3.793 1.793A1 1 0 0 1 4.5 1.5h7a1 1 0 0 1 1 1v2.23a1 1 0 0 1-.397.795L8.302 8.4a.5.5 0 0 1-.602 0L3.9 5.55a1 1 0 0 1-.4-.8V2.5a1 1 0 0 1 .293-.707ZM11.5 2.5h-7v2.25l3.499 2.624 3.5-2.648L11.5 2.5Z" clip-rule="evenodd"/>
  <path fill="currentColor" fill-rule="evenodd" d="M7.7 7.6a.5.5 0 0 1 .602.001l3.8 2.874a1.001 1.001 0 0 1 .398.797V13.5a1 1 0 0 1-1 1h-7a1 1 0 0 1-1-1v-2.25a1 1 0 0 1 .4-.8L7.7 7.6Zm.299 1.026L4.5 11.25v2.25h7v-2.227L7.999 8.626ZM3.5 4a.5.5 0 0 1 .5-.5h8a.5.5 0 0 1 0 1H4a.5.5 0 0 1-.5-.5Z" clip-rule="evenodd"/>
</svg>
