<svg xmlns="http://www.w3.org/2000/svg" width="16" height="16" fill="currentColor" viewBox="0 0 16 16">
  <path fill="currentColor" fill-rule="evenodd" d="M4.5 8a.5.5 0 0 1 .5-.5h6a.5.5 0 0 1 0 1H5a.5.5 0 0 1-.5-.5Z" clip-rule="evenodd"/>
  <path fill="currentColor" fill-rule="evenodd" d="M4 5.5a2.5 2.5 0 1 0 0 5h2.5a.5.5 0 0 1 0 1H4a3.5 3.5 0 1 1 0-7h2.5a.5.5 0 0 1 0 1H4ZM9 5a.5.5 0 0 1 .5-.5H12a3.5 3.5 0 1 1 0 7H9.5a.5.5 0 1 1 0-1H12a2.5 2.5 0 0 0 0-5H9.5A.5.5 0 0 1 9 5Z" clip-rule="evenodd"/>
</svg>
