<svg xmlns="http://www.w3.org/2000/svg" width="16" height="16" fill="currentColor" viewBox="0 0 16 16">
  <path fill="currentColor" fill-rule="evenodd" d="M1.793 2.793A1 1 0 0 1 2.5 2.5h3.293a1 1 0 0 1 .707.293l1.854 1.854a.5.5 0 1 1-.708.707L5.793 3.5H2.5V5a.5.5 0 0 1-1 0V3.5a1 1 0 0 1 .293-.707ZM9 10.5a.5.5 0 0 1 .5-.5H14a.5.5 0 0 1 .5.5V13a.5.5 0 0 1-.5.5H9.5A.5.5 0 0 1 9 13v-2.5Zm1 .5v1.5h3.5V11H10Z" clip-rule="evenodd"/>
  <path fill="currentColor" fill-rule="evenodd" d="M1.5 5a.5.5 0 0 1 .5-.5h11.5a1 1 0 0 1 1 1v1a.5.5 0 0 1-1 0v-1h-11v7h4.535a.5.5 0 0 1 0 1H2.46a.962.962 0 0 1-.96-.96V5Z" clip-rule="evenodd"/>
  <path fill="currentColor" fill-rule="evenodd" d="M11.75 9a.75.75 0 0 0-.75.75v.75a.5.5 0 1 1-1 0v-.75a1.75 1.75 0 0 1 3.5 0v.75a.5.5 0 1 1-1 0v-.75a.75.75 0 0 0-.75-.75Z" clip-rule="evenodd"/>
</svg>
