<svg xmlns="http://www.w3.org/2000/svg" width="16" height="16" fill="currentColor" viewBox="0 0 16 16">
  <path fill="currentColor" fill-rule="evenodd" d="M8 2.5a.5.5 0 0 1 .5.5v5a.5.5 0 0 1-1 0V3a.5.5 0 0 1 .5-.5Z" clip-rule="evenodd"/>
  <path fill="currentColor" fill-rule="evenodd" d="M5.419 3.227a.5.5 0 0 1-.146.692C3.893 4.819 3 6.257 3 8a5 5 0 0 0 10 0c0-1.743-.894-3.182-2.273-4.081a.5.5 0 1 1 .546-.838C12.903 4.144 14 5.882 14 8.001A6 6 0 1 1 2 8c0-2.119 1.096-3.857 2.727-4.92a.5.5 0 0 1 .692.146Z" clip-rule="evenodd"/>
</svg>
