<svg xmlns="http://www.w3.org/2000/svg" width="16" height="16" fill="currentColor" viewBox="0 0 16 16">
  <path fill="currentColor" fill-rule="evenodd" d="M1.631 3.162a.5.5 0 0 1 .707-.03L8 8.322l5.662-5.19a.5.5 0 0 1 .676.737l-6 5.5a.5.5 0 0 1-.676 0l-6-5.5a.5.5 0 0 1-.03-.707Z" clip-rule="evenodd"/>
  <path fill="currentColor" fill-rule="evenodd" d="M1.5 3.5A.5.5 0 0 1 2 3h12a.5.5 0 0 1 .5.5V12a1 1 0 0 1-1 1h-11a1 1 0 0 1-1-1V3.5Zm1 .5v8h11V4h-11Z" clip-rule="evenodd"/>
  <path fill="currentColor" fill-rule="evenodd" d="M7.275 7.662a.5.5 0 0 1-.03.707l-4.75 4.356a.5.5 0 0 1-.677-.737l4.75-4.356a.5.5 0 0 1 .707.03Zm1.45 0a.5.5 0 0 1 .707-.03l4.75 4.356a.5.5 0 1 1-.676.737l-4.75-4.356a.5.5 0 0 1-.03-.707Z" clip-rule="evenodd"/>
</svg>
