<svg xmlns="http://www.w3.org/2000/svg" width="16" height="16" fill="currentColor" viewBox="0 0 16 16">
  <path fill="currentColor" fill-rule="evenodd" d="M8 12a.5.5 0 0 1 .5.5v2a.5.5 0 1 1-1 0v-2A.5.5 0 0 1 8 12ZM2.664 2.13a.5.5 0 0 1 .706.034l10 11a.5.5 0 0 1-.74.672l-10-11a.5.5 0 0 1 .034-.706Z" clip-rule="evenodd"/>
  <path fill="currentColor" fill-rule="evenodd" d="M5.5 4.75a.5.5 0 0 1 .5.5V8a2 2 0 0 0 2 2c.498 0 .978-.185 1.345-.52a.5.5 0 1 1 .674.74A3 3 0 0 1 5 8V5.25a.5.5 0 0 1 .5-.5ZM8 11v-.5.5ZM8 1a3 3 0 0 1 3 3v3.777a.5.5 0 0 1-1 0V4a2 2 0 0 0-3.7-1.05.5.5 0 1 1-.85-.525A3 3 0 0 1 8 1Z" clip-rule="evenodd"/>
  <path fill="currentColor" fill-rule="evenodd" d="M3.5 7.5A.5.5 0 0 1 4 8a4 4 0 0 0 6.69 2.96.5.5 0 0 1 .673.74A5 5 0 0 1 3 8a.5.5 0 0 1 .5-.5Zm9 0a.5.5 0 0 1 .5.5 5 5 0 0 1-.341 1.818.5.5 0 1 1-.932-.363c.181-.464.274-.957.273-1.454a.5.5 0 0 1 .5-.5Z" clip-rule="evenodd"/>
</svg>
