<svg xmlns="http://www.w3.org/2000/svg" width="16" height="16" fill="currentColor" viewBox="0 0 16 16">
  <path fill="currentColor" fill-rule="evenodd" d="M8 6.5a1.5 1.5 0 1 0 0 3 1.5 1.5 0 0 0 0-3ZM5.5 8a2.5 2.5 0 1 1 5 0 2.5 2.5 0 0 1-5 0Z" clip-rule="evenodd"/>
  <path fill="currentColor" fill-rule="evenodd" d="M.5 4a.5.5 0 0 1 .5-.5h14a.5.5 0 0 1 .5.5v8a.5.5 0 0 1-.5.5H1a.5.5 0 0 1-.5-.5V4Zm1 .5v7h13v-7h-13Z" clip-rule="evenodd"/>
  <path fill="currentColor" fill-rule="evenodd" d="M12.416 3.507a.5.5 0 0 1 .577.41 2.553 2.553 0 0 0 2.09 2.09.5.5 0 0 1-.167.986 3.553 3.553 0 0 1-2.909-2.91.5.5 0 0 1 .41-.576Zm3.077 5.91a.5.5 0 0 1-.41.576 2.552 2.552 0 0 0-2.09 2.09.5.5 0 1 1-.986-.166 3.553 3.553 0 0 1 2.91-2.91.5.5 0 0 1 .576.41Zm-14.986 0a.5.5 0 0 1 .577-.41 3.553 3.553 0 0 1 2.909 2.91.5.5 0 1 1-.986.167 2.553 2.553 0 0 0-2.09-2.09.5.5 0 0 1-.41-.577Zm3.077-5.91a.5.5 0 0 1 .409.577 3.553 3.553 0 0 1-2.91 2.91.5.5 0 1 1-.167-.987 2.553 2.553 0 0 0 2.091-2.09.5.5 0 0 1 .577-.41Z" clip-rule="evenodd"/>
</svg>
