<svg xmlns="http://www.w3.org/2000/svg" width="16" height="16" fill="currentColor" viewBox="0 0 16 16">
  <path fill="currentColor" fill-rule="evenodd" d="M9.252 2.217a2.5 2.5 0 0 1 3.516 3.547l-6.206 6.293a1.5 1.5 0 0 1-2.125-2.114L9.644 4.65a.5.5 0 0 1 .713.7l-5.198 5.286a.5.5 0 0 0 .703.708l6.187-6.274a1.5 1.5 0 0 0-2.116-2.12L3.735 9.234a2.496 2.496 0 1 0 3.53 3.53l5.132-5.119a.5.5 0 1 1 .706.708l-5.13 5.118A3.497 3.497 0 0 1 3.025 8.53L9.23 2.238a.503.503 0 0 1 .02-.02Z" clip-rule="evenodd"/>
</svg>
