<svg xmlns="http://www.w3.org/2000/svg" width="16" height="16" fill="currentColor" viewBox="0 0 16 16">
  <path fill="currentColor" fill-rule="evenodd" d="M9.024 8.476c1.455.824 2.827.639 3.826-.292 1-.93 1.708-2.682 1.647-5.18-2.5-.06-4.251.648-5.181 1.647-.93 1-1.116 2.37-.292 3.825Zm-.44-4.506c1.26-1.353 3.509-2.117 6.422-1.946a.5.5 0 0 1 .47.47c.173 2.913-.591 5.163-1.945 6.422-1.387 1.292-3.298 1.453-5.13.354a.5.5 0 0 1-.171-.17c-1.099-1.832-.938-3.742.354-5.13ZM5.687 5.953c.971 1.042 1.085 2.478.271 3.834a.5.5 0 0 1-.171.171c-1.356.814-2.792.7-3.835-.27C.944 8.748.393 7.093.517 4.987a.5.5 0 0 1 .47-.47c2.106-.123 3.761.427 4.7 1.436ZM1.5 5.5c1.685-.013 2.845.478 3.456 1.134.61.655.747 1.552.207 2.53-.977.539-1.874.402-2.53-.208C1.979 8.345 1.487 7.186 1.5 5.5Z" clip-rule="evenodd"/>
  <path fill="currentColor" fill-rule="evenodd" d="M3.146 7.147a.5.5 0 0 1 .708 0l4 4a.5.5 0 1 1-.708.707l-4-4a.5.5 0 0 1 0-.707Z" clip-rule="evenodd"/>
  <path fill="currentColor" fill-rule="evenodd" d="M12.854 4.647a.5.5 0 0 1 0 .707L9.025 9.182A3.5 3.5 0 0 0 8 11.657V13.5a.5.5 0 1 1-1 0v-1.843a4.5 4.5 0 0 1 1.318-3.182l3.828-3.828a.5.5 0 0 1 .708 0Z" clip-rule="evenodd"/>
</svg>
