<svg xmlns="http://www.w3.org/2000/svg" width="16" height="16" fill="currentColor" viewBox="0 0 16 16">
  <path fill="currentColor" fill-rule="evenodd" d="M2.5 3.5a1 1 0 0 1 1-1h3a1 1 0 0 1 1 1v3a1 1 0 0 1-1 1h-3a1 1 0 0 1-1-1v-3Zm4 0h-3v3h3v-3Zm-4 6a1 1 0 0 1 1-1h3a1 1 0 0 1 1 1v3a1 1 0 0 1-1 1h-3a1 1 0 0 1-1-1v-3Zm4 0h-3v3h3v-3Zm2-6a1 1 0 0 1 1-1h3a1 1 0 0 1 1 1v3a1 1 0 0 1-1 1h-3a1 1 0 0 1-1-1v-3Zm4 0h-3v3h3v-3ZM9 8.5a.5.5 0 0 1 .5.5v2a.5.5 0 1 1-1 0V9a.5.5 0 0 1 .5-.5Z" clip-rule="evenodd"/>
  <path fill="currentColor" fill-rule="evenodd" d="M11 8.5a.5.5 0 0 1 .5.5v4a.5.5 0 0 1-.5.5H9a.5.5 0 1 1 0-1h1.5V9a.5.5 0 0 1 .5-.5Z" clip-rule="evenodd"/>
  <path fill="currentColor" fill-rule="evenodd" d="M10.5 10a.5.5 0 0 1 .5-.5h2a.5.5 0 0 1 0 1h-2a.5.5 0 0 1-.5-.5Zm2.5 1.5a.5.5 0 0 1 .5.5v1a.5.5 0 1 1-1 0v-1a.5.5 0 0 1 .5-.5Z" clip-rule="evenodd"/>
</svg>
