<svg xmlns="http://www.w3.org/2000/svg" width="16" height="16" fill="currentColor" viewBox="0 0 16 16">
  <path fill="currentColor" fill-rule="evenodd" d="M4.5 6.5A.5.5 0 0 1 5 6h6a.5.5 0 0 1 0 1H5a.5.5 0 0 1-.5-.5Zm0 2A.5.5 0 0 1 5 8h6a.5.5 0 0 1 0 1H5a.5.5 0 0 1-.5-.5Z" clip-rule="evenodd"/>
  <path fill="currentColor" fill-rule="evenodd" d="M1.793 2.793A1 1 0 0 1 2.5 2.5h11a1 1 0 0 1 1 1V13a.5.5 0 0 1-.724.447L12 12.56l-1.776.888a.5.5 0 0 1-.448 0L8 12.56l-1.776.888a.5.5 0 0 1-.448 0L4 12.56l-1.776.888A.5.5 0 0 1 1.5 13V3.5a1 1 0 0 1 .293-.707ZM13.5 3.5h-11v8.691l1.276-.638a.5.5 0 0 1 .448 0L6 12.44l1.776-.888a.5.5 0 0 1 .448 0L10 12.44l1.776-.888a.5.5 0 0 1 .448 0l1.276.638V3.5Z" clip-rule="evenodd"/>
</svg>
