<svg xmlns="http://www.w3.org/2000/svg" width="16" height="16" fill="currentColor" viewBox="0 0 16 16">
  <path fill="currentColor" fill-rule="evenodd" d="M10.5 2.5A.5.5 0 0 1 11 2h2.5a.5.5 0 0 1 .5.5V5a.5.5 0 0 1-1 0V3h-2a.5.5 0 0 1-.5-.5Zm-8 8a.5.5 0 0 1 .5.5v2h2a.5.5 0 0 1 0 1H2.5a.5.5 0 0 1-.5-.5V11a.5.5 0 0 1 .5-.5Zm11 0a.5.5 0 0 1 .5.5v2.5a.5.5 0 0 1-.5.5H11a.5.5 0 1 1 0-1h2v-2a.5.5 0 0 1 .5-.5ZM2 2.5a.5.5 0 0 1 .5-.5H5a.5.5 0 0 1 0 1H3v2a.5.5 0 0 1-1 0V2.5Zm2.5 3a1 1 0 0 1 1-1h5a1 1 0 0 1 1 1v5a1 1 0 0 1-1 1h-5a1 1 0 0 1-1-1v-5Zm6 0h-5v5h5v-5Z" clip-rule="evenodd"/>
</svg>
