<svg xmlns="http://www.w3.org/2000/svg" width="16" height="16" fill="currentColor" viewBox="0 0 16 16">
  <path fill="currentColor" fill-rule="evenodd" d="M8 5.5a2.5 2.5 0 1 0 0 5 2.5 2.5 0 0 0 0-5ZM4.5 8a3.5 3.5 0 1 1 7 0 3.5 3.5 0 0 1-7 0Z" clip-rule="evenodd"/>
  <path fill="currentColor" fill-rule="evenodd" d="M5.859 1.33a.5.5 0 0 1 .41.048l1.462.877a6.02 6.02 0 0 1 .538 0l1.455-.871a.5.5 0 0 1 .408-.048 6.912 6.912 0 0 1 2.574 1.482.5.5 0 0 1 .163.378l-.029 1.699c.099.151.19.308.271.47l1.482.823a.5.5 0 0 1 .245.328c.218.976.22 1.989.007 2.966a.5.5 0 0 1-.247.33l-1.487.824a5.105 5.105 0 0 1-.27.47l.028 1.698a.5.5 0 0 1-.163.378 7.001 7.001 0 0 1-2.565 1.488.5.5 0 0 1-.41-.047l-1.462-.877c-.18.008-.359.008-.538 0l-1.456.87a.5.5 0 0 1-.407.048 6.913 6.913 0 0 1-2.574-1.482.5.5 0 0 1-.163-.378l.029-1.695a5.5 5.5 0 0 1-.271-.473l-1.482-.824a.5.5 0 0 1-.245-.328 6.875 6.875 0 0 1-.007-2.966.5.5 0 0 1 .246-.33l1.488-.824a5.1 5.1 0 0 1 .27-.47l-.028-1.698a.5.5 0 0 1 .163-.378A7 7 0 0 1 5.86 1.331ZM4.135 3.41l.027 1.625a.5.5 0 0 1-.09.295 4.1 4.1 0 0 0-.35.607.5.5 0 0 1-.211.226l-1.422.787a5.875 5.875 0 0 0 .005 2.1l1.418.788a.5.5 0 0 1 .209.224c.102.215.22.422.354.619a.5.5 0 0 1 .087.29l-.027 1.619c.54.456 1.159.812 1.825 1.05l1.39-.831a.5.5 0 0 1 .292-.07c.238.017.478.017.716 0a.5.5 0 0 1 .293.07l1.394.836a6 6 0 0 0 1.82-1.055l-.027-1.625a.5.5 0 0 1 .09-.295 4.1 4.1 0 0 0 .35-.607.5.5 0 0 1 .211-.225l1.422-.788a5.879 5.879 0 0 0-.005-2.1l-1.418-.788a.5.5 0 0 1-.21-.225 4.099 4.099 0 0 0-.35-.607.5.5 0 0 1-.09-.295l.027-1.624A5.913 5.913 0 0 0 10.04 2.36l-1.39.832a.5.5 0 0 1-.292.07 5.02 5.02 0 0 0-.716 0 .5.5 0 0 1-.293-.07l-1.394-.837a6 6 0 0 0-1.82 1.056Z" clip-rule="evenodd"/>
</svg>
