<svg xmlns="http://www.w3.org/2000/svg" width="16" height="16" fill="currentColor" viewBox="0 0 16 16">
  <path fill="currentColor" fill-rule="evenodd" d="M2.293 2.793A1 1 0 0 1 3 2.5h10a1 1 0 0 1 1 1v3.673c0 5.613-4.764 7.467-5.686 7.774a.971.971 0 0 1-.627 0C6.763 14.641 2 12.79 2 7.175V3.5a1 1 0 0 1 .293-.707ZM13 3.5H3v3.675c0 4.9 4.131 6.534 5 6.823.87-.29 5-1.927 5-6.825V3.5Z" clip-rule="evenodd"/>
  <path fill="currentColor" fill-rule="evenodd" d="M10.854 6.147a.5.5 0 0 1 0 .707l-3.5 3.5a.5.5 0 0 1-.708 0l-1.5-1.5a.5.5 0 1 1 .708-.707L7 9.293l3.146-3.146a.5.5 0 0 1 .708 0Z" clip-rule="evenodd"/>
</svg>
