<svg xmlns="http://www.w3.org/2000/svg" width="16" height="16" fill="currentColor" viewBox="0 0 16 16">
  <path fill="currentColor" fill-rule="evenodd" d="M2.664 2.13a.5.5 0 0 1 .706.034l10 11a.5.5 0 0 1-.74.672l-10-11a.5.5 0 0 1 .034-.706Z" clip-rule="evenodd"/>
  <path fill="currentColor" fill-rule="evenodd" d="M2.293 2.793A1 1 0 0 1 3 2.5h.454a.5.5 0 0 1 0 1H3v3.675c0 4.896 4.124 6.532 5 6.827.49-.167 2.095-.79 3.353-2.228a.5.5 0 1 1 .753.658c-1.435 1.641-3.246 2.334-3.791 2.519a.97.97 0 0 1-.63 0C6.767 14.642 2 12.791 2 7.174V3.5a1 1 0 0 1 .293-.707Zm5.716 11.212ZM5.657 3a.5.5 0 0 1 .5-.5H13a1 1 0 0 1 1 1v3.673c0 1.319-.264 2.446-.694 3.394a.5.5 0 0 1-.91-.413c.368-.814.604-1.8.604-2.98V3.5H6.157a.5.5 0 0 1-.5-.5Z" clip-rule="evenodd"/>
</svg>
