<svg xmlns="http://www.w3.org/2000/svg" width="16" height="16" fill="currentColor" viewBox="0 0 16 16">
  <path fill="currentColor" fill-rule="evenodd" d="M2.293 2.793A1 1 0 0 1 3 2.5h10a1 1 0 0 1 1 1v3.673c0 5.613-4.764 7.467-5.686 7.774a.971.971 0 0 1-.627 0C6.763 14.641 2 12.79 2 7.175V3.5a1 1 0 0 1 .293-.707ZM13 3.5H3v3.675c0 4.9 4.131 6.534 5 6.823.87-.29 5-1.927 5-6.825V3.5Z" clip-rule="evenodd"/>
  <path fill="currentColor" fill-rule="evenodd" d="M5.5 8a.5.5 0 0 1 .5-.5h4a.5.5 0 0 1 0 1H6a.5.5 0 0 1-.5-.5Z" clip-rule="evenodd"/>
  <path fill="currentColor" fill-rule="evenodd" d="M8 5.5a.5.5 0 0 1 .5.5v4a.5.5 0 1 1-1 0V6a.5.5 0 0 1 .5-.5Z" clip-rule="evenodd"/>
</svg>
