<svg xmlns="http://www.w3.org/2000/svg" width="16" height="16" fill="currentColor" viewBox="0 0 16 16">
  <path fill="currentColor" fill-rule="evenodd" d="M10.521 5.022a.5.5 0 0 1 .708 0l2.625 2.625a.5.5 0 0 1 0 .707l-2.625 2.625a.5.5 0 0 1-.708-.707L12.793 8 10.52 5.73a.5.5 0 0 1 0-.707Z" clip-rule="evenodd"/>
  <path fill="currentColor" fill-rule="evenodd" d="M6 8a.5.5 0 0 1 .5-.5h7a.5.5 0 0 1 0 1h-7A.5.5 0 0 1 6 8Z" clip-rule="evenodd"/>
  <path fill="currentColor" fill-rule="evenodd" d="M2.293 2.293A1 1 0 0 1 3 2h3.5a.5.5 0 0 1 0 1H3v10h3.5a.5.5 0 0 1 0 1H3a1 1 0 0 1-1-1V3a1 1 0 0 1 .293-.707Z" clip-rule="evenodd"/>
</svg>
