<svg xmlns="http://www.w3.org/2000/svg" width="16" height="16" fill="currentColor" viewBox="0 0 16 16">
  <path fill="currentColor" fill-rule="evenodd" d="M2 10.75a.5.5 0 0 1 .5-.5h6.75a.5.5 0 0 1 0 1H2.5a.5.5 0 0 1-.5-.5Zm9.25 0a.5.5 0 0 1 .5-.5h1.75a.5.5 0 0 1 0 1h-1.75a.5.5 0 0 1-.5-.5Z" clip-rule="evenodd"/>
  <path fill="currentColor" fill-rule="evenodd" d="M10.5 10a.75.75 0 1 0 0 1.5.75.75 0 0 0 0-1.5Zm-1.75.75a1.75 1.75 0 1 1 3.5 0 1.75 1.75 0 0 1-3.5 0ZM2 5.25a.5.5 0 0 1 .5-.5h2.75a.5.5 0 0 1 0 1H2.5a.5.5 0 0 1-.5-.5Zm5.25 0a.5.5 0 0 1 .5-.5h5.75a.5.5 0 0 1 0 1H7.75a.5.5 0 0 1-.5-.5Z" clip-rule="evenodd"/>
  <path fill="currentColor" fill-rule="evenodd" d="M6.5 4.5a.75.75 0 1 0 0 1.5.75.75 0 0 0 0-1.5Zm-1.75.75a1.75 1.75 0 1 1 3.5 0 1.75 1.75 0 0 1-3.5 0Z" clip-rule="evenodd"/>
</svg>
