<svg xmlns="http://www.w3.org/2000/svg" width="16" height="16" fill="currentColor" viewBox="0 0 16 16">
  <path fill="currentColor" fill-rule="evenodd" d="M1.568 10.748a.5.5 0 0 1 .684-.18L8 13.921l5.748-3.353a.5.5 0 0 1 .504.864l-6 3.5a.5.5 0 0 1-.504 0l-6-3.5a.5.5 0 0 1-.18-.684Z" clip-rule="evenodd"/>
  <path fill="currentColor" fill-rule="evenodd" d="M1.568 7.748a.5.5 0 0 1 .684-.18L8 10.921l5.748-3.353a.5.5 0 1 1 .504.864l-6 3.5a.5.5 0 0 1-.504 0l-6-3.5a.5.5 0 0 1-.18-.684Z" clip-rule="evenodd"/>
  <path fill="currentColor" fill-rule="evenodd" d="M7.748 1.068a.5.5 0 0 1 .504 0l6 3.5a.5.5 0 0 1 0 .864l-6 3.5a.5.5 0 0 1-.504 0l-6-3.5a.5.5 0 0 1 0-.864l6-3.5ZM2.992 5 8 7.921l5.008-2.92L8 2.078 2.992 5Z" clip-rule="evenodd"/>
</svg>
