<svg xmlns="http://www.w3.org/2000/svg" width="16" height="16" fill="currentColor" viewBox="0 0 16 16">
  <path fill="currentColor" fill-rule="evenodd" d="M7.416 1.18a1.019 1.019 0 0 1 1.538.479l1.377 3.467a.02.02 0 0 0 .007.009.02.02 0 0 0 .01.003h.003l3.687.238c.958.062 1.285 1.26.588 1.84l-2.824 2.356H11.8a.044.044 0 0 0-.015.045l.912 3.585c.22.871-.72 1.656-1.539 1.14l-.001-.001-3.15-2A.013.013 0 0 0 8 12.339c-.002 0-.005 0-.007.002l-2.93 1.856c-.001 0 0 0 0 0-.899.57-1.936-.297-1.691-1.258m.843-3.322.485.12-.485-.122v.002Zm-2.84-2.401.319-.385-.32.384v.001Zm6.04-6.036a1.019 1.019 0 0 0-.37.479Zm1.128 10.317 3.149 1.999.01.005a.031.031 0 0 0 .012-.006.044.044 0 0 0 .014-.018l.002-.01c0-.003 0-.01-.002-.019l-.913-3.59a1.044 1.044 0 0 1 .347-1.055l2.825-2.356a.046.046 0 0 0 .01-.01.026.026 0 0 0 .002-.007.06.06 0 0 0-.002-.032.047.047 0 0 0-.012-.021v-.001a.033.033 0 0 0-.011-.002l-3.684-.237h-.002a1.019 1.019 0 0 1-.892-.657L8.023 2.022l-.005-.013a.019.019 0 0 0-.036 0l-.005.013L6.604 5.48a1.019 1.019 0 0 1-.892.657l-3.686.237a.036.036 0 0 0-.01.002h-.001a.048.048 0 0 0-.012.022A.06.06 0 0 0 2 6.43c0 .003.002.005.003.007a.044.044 0 0 0 .01.01l2.823 2.355.001.001a1.044 1.044 0 0 1 .347 1.055v.003l-.844 3.325a.146.146 0 0 0 .118.187.105.105 0 0 0 .066-.02l2.932-1.856" clip-rule="evenodd"/>
</svg>
