<svg xmlns="http://www.w3.org/2000/svg" width="16" height="16" fill="currentColor" viewBox="0 0 16 16">
  <path fill="currentColor" fill-rule="evenodd" d="M12.5 8a1.5 1.5 0 1 0 0 3 1.5 1.5 0 0 0 0-3ZM10 9.5a2.5 2.5 0 1 1 5 0 2.5 2.5 0 0 1-5 0Z" clip-rule="evenodd"/>
  <path fill="currentColor" fill-rule="evenodd" d="M6 8a.5.5 0 0 1 .5.5v3a2 2 0 0 0 2 2H10a2 2 0 0 0 2-2 .5.5 0 0 1 1 0 3 3 0 0 1-3 3H8.5a3 3 0 0 1-3-3v-3A.5.5 0 0 1 6 8Z" clip-rule="evenodd"/>
  <path fill="currentColor" fill-rule="evenodd" d="M2.293 1.793A1 1 0 0 1 3 1.5h1a.5.5 0 0 1 0 1H3V5a3 3 0 0 0 3.04 3C7.68 7.98 9 6.608 9 4.948V2.5H8a.5.5 0 0 1 0-1h1a1 1 0 0 1 1 1v2.448C10 7.135 8.26 8.971 6.053 9m-3.76-7.207A1 1 0 0 0 2 2.5ZM2 2.5V5ZM2 5Zm0 0a4 4 0 0 0 4.053 4" clip-rule="evenodd"/>
</svg>
