<svg xmlns="http://www.w3.org/2000/svg" width="16" height="16" fill="currentColor" viewBox="0 0 16 16">
  <path fill="currentColor" fill-rule="evenodd" d="M11.146 1.147a.5.5 0 0 1 .708 0l3 3a.5.5 0 0 1-.708.707l-3-3a.5.5 0 0 1 0-.707Zm-2.042 2.25a.5.5 0 0 1 0 .707L3.5 9.707V12.5h2.793l5.603-5.603a.5.5 0 0 1 .708.707L7 13.207a1 1 0 0 1-.707.293H3a.5.5 0 0 1-.5-.5V9.707a1 1 0 0 1 .292-.706l5.604-5.604a.5.5 0 0 1 .708 0Z" clip-rule="evenodd"/>
  <path fill="currentColor" fill-rule="evenodd" d="M5.771 6.022a.5.5 0 0 1 .708 0l1.625 1.625a.5.5 0 1 1-.708.707L5.771 6.729a.5.5 0 0 1 0-.707Zm-1.5 1.5a.5.5 0 0 1 .708 0l1.625 1.625a.5.5 0 1 1-.708.707L4.271 8.229a.5.5 0 0 1 0-.707Zm9.083-4.875a.5.5 0 0 1 0 .707l-2.5 2.5a.5.5 0 0 1-.708-.707l2.5-2.5a.5.5 0 0 1 .708 0Zm-10 10a.5.5 0 0 1 0 .707l-1.5 1.5a.5.5 0 0 1-.708-.707l1.5-1.5a.5.5 0 0 1 .708 0Z" clip-rule="evenodd"/>
  <path fill="currentColor" fill-rule="evenodd" d="M7.646 2.647a.5.5 0 0 1 .708 0l5 5a.5.5 0 0 1-.708.707l-5-5a.5.5 0 0 1 0-.707Z" clip-rule="evenodd"/>
</svg>
