<svg xmlns="http://www.w3.org/2000/svg" width="16" height="16" fill="currentColor" viewBox="0 0 16 16">
  <path fill="currentColor" fill-rule="evenodd" d="M11 6a.5.5 0 0 1 .447.277l3.5 7a.5.5 0 1 1-.894.447L11 7.618l-3.053 6.106a.5.5 0 1 1-.894-.447l3.5-7A.5.5 0 0 1 11 6Z" clip-rule="evenodd"/>
  <path fill="currentColor" fill-rule="evenodd" d="M8 11.5a.5.5 0 0 1 .5-.5h5a.5.5 0 0 1 0 1h-5a.5.5 0 0 1-.5-.5Zm-2.5-10A.5.5 0 0 1 6 2v1.5a.5.5 0 0 1-1 0V2a.5.5 0 0 1 .5-.5Z" clip-rule="evenodd"/>
  <path fill="currentColor" fill-rule="evenodd" d="M1 3.5a.5.5 0 0 1 .5-.5h8a.5.5 0 0 1 0 1h-8a.5.5 0 0 1-.5-.5Z" clip-rule="evenodd"/>
  <path fill="currentColor" fill-rule="evenodd" d="M7.5 3a.5.5 0 0 1 .5.5A6.5 6.5 0 0 1 1.5 10a.5.5 0 1 1 0-1A5.5 5.5 0 0 0 7 3.5a.5.5 0 0 1 .5-.5Z" clip-rule="evenodd"/>
  <path fill="currentColor" fill-rule="evenodd" d="M3.675 5.029a.5.5 0 0 1 .638.304A5.5 5.5 0 0 0 9.5 9a.5.5 0 0 1 0 1 6.5 6.5 0 0 1-6.13-4.333.5.5 0 0 1 .305-.638Z" clip-rule="evenodd"/>
</svg>
