<svg xmlns="http://www.w3.org/2000/svg" width="16" height="16" fill="currentColor" viewBox="0 0 16 16">
  <path fill="currentColor" fill-rule="evenodd" d="M1.146 4.147a.5.5 0 0 1 .708 0L6 8.293l2.146-2.146a.5.5 0 0 1 .708 0l6 6a.5.5 0 0 1-.708.707L8.5 7.207 6.354 9.354a.5.5 0 0 1-.708 0l-4.5-4.5a.5.5 0 0 1 0-.707Z" clip-rule="evenodd"/>
  <path fill="currentColor" fill-rule="evenodd" d="M14.5 8a.5.5 0 0 1 .5.5v4a.5.5 0 0 1-.5.5h-4a.5.5 0 1 1 0-1H14V8.5a.5.5 0 0 1 .5-.5Z" clip-rule="evenodd"/>
</svg>
