<svg xmlns="http://www.w3.org/2000/svg" width="16" height="16" fill="currentColor" viewBox="0 0 16 16">
  <path fill="currentColor" fill-rule="evenodd" d="M8 8a.5.5 0 0 1 .5.5v4a1 1 0 1 0 2 0 .5.5 0 0 1 1 0 2 2 0 1 1-4 0v-4A.5.5 0 0 1 8 8Z" clip-rule="evenodd"/>
  <path fill="currentColor" fill-rule="evenodd" d="M7.998 2.503a6.023 6.023 0 0 0-6 5.496V8h12a6.023 6.023 0 0 0-6-5.497Zm-4.744.845a7.023 7.023 0 0 1 11.74 4.564M3.254 3.348a7.023 7.023 0 0 0-2.252 4.564ZM2.001 9H2v-.5l.002.5h-.001Zm0 0h11.994Z" clip-rule="evenodd"/>
  <path fill="currentColor" fill-rule="evenodd" d="M8.312 1.61 8 2l-.312-.39a.5.5 0 0 1 .624 0ZM8 2.697a6.64 6.64 0 0 0-.819 1.12C6.597 4.808 6 6.346 6 8.5a.5.5 0 0 1-1 0c0-2.347.653-4.06 1.319-5.19.332-.565.666-.983.92-1.263a5.313 5.313 0 0 1 .435-.426l.008-.007.004-.003.001-.001L8 2l.313-.39.001.001.004.003.008.007a2.103 2.103 0 0 1 .122.107c.078.073.185.179.313.319.254.28.588.698.92 1.262C10.347 4.441 11 6.153 11 8.5a.5.5 0 0 1-1 0c0-2.152-.597-3.69-1.181-4.684A6.64 6.64 0 0 0 8 2.696Zm-.313-.307Z" clip-rule="evenodd"/>
</svg>
