<svg xmlns="http://www.w3.org/2000/svg" width="16" height="16" fill="currentColor" viewBox="0 0 16 16">
  <path fill="currentColor" fill-rule="evenodd" d="M7.646 2.147a.5.5 0 0 1 .708 0l2.625 2.625a.5.5 0 0 1-.708.707L8 3.207 5.729 5.48a.5.5 0 1 1-.708-.707l2.625-2.625Z" clip-rule="evenodd"/>
  <path fill="currentColor" fill-rule="evenodd" d="M8 2a.5.5 0 0 1 .5.5v7a.5.5 0 0 1-1 0v-7A.5.5 0 0 1 8 2Z" clip-rule="evenodd"/>
  <path fill="currentColor" fill-rule="evenodd" d="M2.5 9a.5.5 0 0 1 .5.5V13h10V9.5a.5.5 0 0 1 1 0V13a1 1 0 0 1-1 1H3a1 1 0 0 1-1-1V9.5a.5.5 0 0 1 .5-.5Z" clip-rule="evenodd"/>
</svg>
