<svg xmlns="http://www.w3.org/2000/svg" width="16" height="16" fill="currentColor" viewBox="0 0 16 16">
  <path fill="currentColor" fill-rule="evenodd" d="M5.25 4a2.75 2.75 0 1 0 0 5.5 2.75 2.75 0 0 0 0-5.5ZM1.5 6.75a3.75 3.75 0 1 1 7.5 0 3.75 3.75 0 0 1-7.5 0Z" clip-rule="evenodd"/>
  <path fill="currentColor" fill-rule="evenodd" d="M5.25 10.499a5 5 0 0 0-4.191 2.274.5.5 0 0 1-.839-.546 6 6 0 0 1 10.06 0 .5.5 0 0 1-.838.546 5 5 0 0 0-4.192-2.274Zm7.884.605a4.996 4.996 0 0 0-2.384-.604.5.5 0 1 1 0-1 5.996 5.996 0 0 1 5.03 2.728.5.5 0 1 1-.839.545 4.995 4.995 0 0 0-1.807-1.669Z" clip-rule="evenodd"/>
  <path fill="currentColor" fill-rule="evenodd" d="M10.913 4.005a2.75 2.75 0 0 0-1.185.19.5.5 0 1 1-.37-.928A3.75 3.75 0 1 1 10.75 10.5a.5.5 0 1 1 0-1 2.75 2.75 0 0 0 .163-5.495Z" clip-rule="evenodd"/>
</svg>
