<svg xmlns="http://www.w3.org/2000/svg" width="16" height="16" fill="currentColor" viewBox="0 0 16 16">
  <path fill="currentColor" fill-rule="evenodd" d="M8 2.5a3.5 3.5 0 1 0 0 7 3.5 3.5 0 0 0 0-7ZM3.5 6a4.5 4.5 0 1 1 9 0 4.5 4.5 0 0 1-9 0Z" clip-rule="evenodd"/>
  <path fill="currentColor" fill-rule="evenodd" d="M8 10.5c-2.4 0-4.44 1.302-5.567 3.25a.5.5 0 0 1-.866-.5C2.861 11.014 5.22 9.5 8 9.5c2.781 0 5.14 1.514 6.433 3.75a.5.5 0 1 1-.866.5C12.44 11.803 10.4 10.5 8 10.5Z" clip-rule="evenodd"/>
</svg>
