<svg xmlns="http://www.w3.org/2000/svg" width="16" height="16" fill="currentColor" viewBox="0 0 16 16">
  <g clip-path="url(#a)">
    <path fill="currentColor" fill-rule="evenodd" d="M8 3a5 5 0 1 0 0 10A5 5 0 0 0 8 3ZM2 8a6 6 0 1 1 12 0A6 6 0 0 1 2 8Z" clip-rule="evenodd"/>
    <path fill="currentColor" fill-rule="evenodd" d="M6.75 6a.75.75 0 1 0 0 1.5.75.75 0 0 0 0-1.5ZM5 6.75a1.75 1.75 0 1 1 3.5 0 1.75 1.75 0 0 1-3.5 0ZM8 .5a.5.5 0 0 1 .5.5v1.5a.5.5 0 0 1-1 0V1A.5.5 0 0 1 8 .5ZM13 8a.5.5 0 0 1 .5-.5H15a.5.5 0 0 1 0 1h-1.5A.5.5 0 0 1 13 8ZM.5 8a.5.5 0 0 1 .5-.5h1.5a.5.5 0 0 1 0 1H1A.5.5 0 0 1 .5 8ZM8 13a.5.5 0 0 1 .5.5V15a.5.5 0 1 1-1 0v-1.5A.5.5 0 0 1 8 13ZM2.646 2.647a.5.5 0 0 1 .708 0l1.11 1.11a.5.5 0 0 1-.707.707l-1.11-1.11a.5.5 0 0 1 0-.707Zm10.708 0a.5.5 0 0 1 0 .707l-1.111 1.11a.5.5 0 1 1-.707-.707l1.11-1.11a.5.5 0 0 1 .708 0Zm-1.818 8.889a.5.5 0 0 1 .707 0l1.11 1.11a.5.5 0 0 1-.707.708l-1.11-1.111a.5.5 0 0 1 0-.707Zm-7.072 0a.5.5 0 0 1 0 .707l-1.11 1.11a.5.5 0 0 1-.708-.706l1.111-1.111a.5.5 0 0 1 .707 0Z" clip-rule="evenodd"/>
  </g>
  <defs>
    <clipPath id="a">
      <path fill="#fff" d="M0 0h16v16H0z"/>
    </clipPath>
  </defs>
</svg>
