<svg xmlns="http://www.w3.org/2000/svg" width="16" height="16" fill="currentColor" viewBox="0 0 16 16">
  <path fill="currentColor" fill-rule="evenodd" d="M8 4a4 4 0 1 0 0 8 4 4 0 0 0 0-8ZM3 8a5 5 0 1 1 10 0A5 5 0 0 1 3 8Z" clip-rule="evenodd"/>
  <path fill="currentColor" d="m6.418 2-.426 2.347a.5.5 0 1 1-.984-.178l.426-2.347A1 1 0 0 1 6.417 1h3.166a1 1 0 0 1 .983.821l.426 2.348a.5.5 0 0 1-.984.178L9.582 2H6.418Z"/>
  <path fill="currentColor" fill-rule="evenodd" d="M5.41 11.25a.5.5 0 0 1 .582.403L6.418 14h3.164l.426-2.347a.5.5 0 0 1 .984.178l-.426 2.348a1 1 0 0 1-.983.821H6.418a1 1 0 0 1-.984-.821l-.426-2.348a.5.5 0 0 1 .403-.581ZM8 5a.5.5 0 0 1 .5.5v2h2a.5.5 0 0 1 0 1H8a.5.5 0 0 1-.5-.5V5.5A.5.5 0 0 1 8 5Z" clip-rule="evenodd"/>
</svg>
