<svg xmlns="http://www.w3.org/2000/svg" width="16" height="16" fill="currentColor" viewBox="0 0 16 16">
  <path fill="currentColor" fill-rule="evenodd" d="M6.206 5.03A1.5 1.5 0 0 0 5 6.5 4.5 4.5 0 0 0 9.5 11a1.5 1.5 0 0 0 1.47-1.205l-1.434-.718-.913.61a.5.5 0 0 1-.47.044 3.512 3.512 0 0 1-1.884-1.883.5.5 0 0 1 .045-.471l.609-.913-.717-1.435Zm-1.474-.298A2.5 2.5 0 0 1 6.5 4a.5.5 0 0 1 .447.277l1 2a.5.5 0 0 1-.031.5l-.612.918c.23.423.578.77 1 1.001l.919-.612a.5.5 0 0 1 .5-.031l2 1A.5.5 0 0 1 12 9.5 2.5 2.5 0 0 1 9.5 12 5.5 5.5 0 0 1 4 6.5a2.5 2.5 0 0 1 .732-1.768Z" clip-rule="evenodd"/>
  <path fill="currentColor" fill-rule="evenodd" d="M4.041 2.847a6.5 6.5 0 1 1 .904 10.891l-2.128.71a1 1 0 0 1-1.265-1.265l.712-2.126a6.5 6.5 0 0 1 1.777-8.21Zm4.318-.334a5.5 5.5 0 0 0-5.118 8.244.5.5 0 0 1 .041.409L2.501 13.5l2.336-.78a.5.5 0 0 1 .41.042A5.5 5.5 0 1 0 8.358 2.513Z" clip-rule="evenodd"/>
</svg>
